<?xml version="1.0" encoding="UTF-8"?>
<svg xmlns="http://www.w3.org/2000/svg" width="1245" height="326" viewBox="0 0 1245 326" fill="none">
  <path d="M1177.62 326C1177.62 326 1188.92 281.763 1225.99 274.665C1225.99 274.665 1244.61 227.552 1244.61 162.965V163.035C1244.61 98.4485 1225.99 51.3347 1225.99 51.3347C1188.92 44.2605 1177.62 0 1177.62 0H66.9921C66.9921 0 55.7162 44.237 18.6195 51.3347C18.6195 51.3347 0 98.4485 0 163.035V162.965C0 227.552 18.6195 274.665 18.6195 274.665C55.7162 281.739 66.9921 326 66.9921 326H1177.62Z" fill="#E30613"></path>
  <path d="M172.621 75.6949C192.401 75.6949 209.007 82.038 222.557 94.5828C235.61 106.656 242.953 122.856 242.953 140.895C242.953 158.934 235.61 175.134 222.936 187.325C209.623 200.129 193.396 206.684 174.019 207.062H171.105V250.332H140.57V75.6949H172.645H172.621ZM171.105 177.562H173.64C195.813 177.185 212.418 161.481 212.418 140.871C212.418 120.262 195.315 105.053 172.621 105.053H171.105V177.562Z" fill="white"></path>
  <path d="M348.985 75.6949L349.104 75.9307L411.974 250.19H380.16L380.041 249.813L371.94 225.572H312.623L304.521 250.19H272.825L273.086 249.459L334.559 75.6949H349.009H348.985ZM322.122 196.592H362.298L342.021 140.282L322.122 196.592Z" fill="white"></path>
  <path d="M502.18 75.6949V221.328H567.324V250.332H471.882V75.6949H502.18Z" fill="white"></path>
  <path d="M661.038 75.6949V221.328H726.183V250.332H630.764V75.6949H661.038Z" fill="white"></path>
  <path d="M818.521 75.6949H788.365V250.332H818.521V75.6949Z" fill="white"></path>
  <path d="M1006.04 76.3081L1006.16 250.332H994.246L994.127 250.073L917.067 151.365V250.214H887.03V75.8129H898.922L899.064 76.0487L976.005 175.016V75.8129H1006.04V76.3081Z" fill="white"></path>
  <path d="M1104.07 75.6949H1073.91V250.332H1104.07V75.6949Z" fill="white"></path>
  <path d="M93.5239 17.9231L225.518 15.3764L357.513 13.9144C445.493 13.0891 533.497 13.1362 621.478 12.7118C709.482 13.1362 797.463 13.0655 885.467 13.938L1017.46 15.4L1149.46 17.9231V18.5362H93.5239V17.9231Z" fill="white"></path>
  <path d="M93.5239 307.798L225.518 310.345L357.513 311.806C445.493 312.632 533.497 312.585 621.478 313.009C709.482 312.585 797.463 312.655 885.467 311.806L1017.46 310.345L1149.46 307.798V307.185H93.5239V307.798Z" fill="white"></path>
  <path d="M1223.89 163.061C1223.65 195.201 1217.51 227.011 1209.89 258.326C1199.27 262.664 1189.73 269.408 1182.29 277.921C1174.59 286.622 1168.67 296.715 1164.45 307.373C1169.5 297.092 1175.77 287.377 1183.78 279.312C1191.76 271.248 1201.26 264.74 1211.9 261.037L1212.68 260.754L1212.92 259.906C1222.01 228.544 1228.03 196.026 1228.81 163.155V163.108C1228.03 130.237 1222.01 97.7191 1212.92 66.357L1212.68 65.5081L1211.9 65.2252C1201.29 61.4995 1191.76 54.9912 1183.78 46.9503C1175.8 38.8622 1169.52 29.1471 1164.45 18.866C1168.69 29.5243 1174.61 39.5932 1182.29 48.318C1189.73 56.8305 1199.27 63.5981 1209.89 67.9133C1217.51 99.2282 1223.65 131.038 1223.89 163.178V163.084V163.061Z" fill="white"></path>
  <path d="M20.7517 163.061C20.9885 195.201 27.124 227.011 34.7518 258.326C45.3644 262.664 54.911 269.408 62.3493 277.921C70.0482 286.622 75.9704 296.715 80.187 307.373C75.1413 297.092 68.8638 287.377 60.8569 279.312C52.8738 271.248 43.3745 264.74 32.7382 261.037L31.9565 260.754L31.7196 259.906C22.6231 228.544 16.6061 196.026 15.8244 163.155V163.108C16.6061 130.237 22.6231 97.7191 31.7196 66.357L31.9565 65.5081L32.7382 65.2252C43.3508 61.4995 52.8738 54.9912 60.8569 46.9503C68.8638 38.8622 75.1176 29.1471 80.187 18.866C75.9704 29.5243 70.0482 39.5932 62.3493 48.318C54.911 56.8305 45.3644 63.5981 34.7518 67.9133C27.124 99.2282 20.9885 131.038 20.7517 163.178V163.084V163.061Z" fill="white"></path>
</svg>